<svg width="11" height="10" viewBox="0 0 11 10" fill="none" xmlns="http://www.w3.org/2000/svg">
<path d="M10.7004 5.32405C10.7004 2.38367 8.33046 0 5.40697 0C2.48347 0 0.0001238 2.38367 0.0001238 5.32405V8.64703C-0.000197126 8.75971 0.0441634 8.86786 0.123379 8.94754C0.202594 9.02721 0.310127 9.07182 0.422154 9.0715H1.02505C1.13708 9.07182 1.24461 9.02721 1.32383 8.94754C1.40304 8.86786 1.4474 8.75971 1.44708 8.64703V5.88676C1.44708 5.65234 1.63603 5.46231 1.86911 5.46231H2.72763C2.96071 5.46231 3.14967 5.65234 3.14967 5.88676V8.64703C3.14935 8.75971 3.1937 8.86786 3.27292 8.94754C3.35213 9.02721 3.45966 9.07182 3.57168 9.0715H4.1746C4.28662 9.07182 4.39415 9.02721 4.47336 8.94754C4.55258 8.86786 4.59693 8.75971 4.59661 8.64703V7.809C4.59661 6.97062 5.04133 6.1959 5.76322 5.77671C6.48513 5.35751 7.37455 5.35751 8.09644 5.77671C8.81835 6.1959 9.26305 6.97062 9.26305 7.809V8.64703C9.26305 8.88145 9.45201 9.0715 9.68509 9.0715H10.2808C10.5139 9.0715 10.7028 8.88145 10.7028 8.64703L10.7004 5.32405ZM3.04716 4.19076C2.96819 4.31891 2.85987 4.42619 2.73124 4.50364C2.50713 4.63297 2.238 4.65734 1.9945 4.57035C1.95914 4.55933 1.92544 4.54341 1.89444 4.52304C1.61632 4.36947 1.44348 4.07569 1.44348 3.75659C1.44348 3.43746 1.61632 3.1437 1.89444 2.99011C1.9269 2.96925 1.96224 2.95333 1.99934 2.9428C2.31584 2.83089 2.66811 2.90992 2.9073 3.14655C3.07547 3.30275 3.1708 3.52272 3.17016 3.75295C3.16991 3.90746 3.12735 4.05894 3.04716 4.19076Z" fill="#343542"/>
</svg>
