<svg width="11" height="11" viewBox="0 0 11 11" fill="none" xmlns="http://www.w3.org/2000/svg">
<path d="M4.94774 1.80522e-05C3.90937 0.00264485 2.87893 0.283577 2.02066 0.892455C1.03976 1.58835 0.29326 2.71451 0.0253039 4.29732C-0.0589332 4.79484 0.0681859 5.23271 0.347345 5.56515C0.626414 5.89751 1.04037 6.12991 1.52882 6.3011C2.50567 6.64348 3.80241 6.74384 5.06139 6.74384C6.32753 6.74384 7.68511 6.57707 8.72584 6.20501C9.24621 6.01893 9.68967 5.78202 10.0028 5.4704C10.2594 5.21502 10.4218 4.89587 10.4399 4.54218H10.4644L10.4322 4.30433C10.0953 1.78586 7.76344 0.189529 5.39252 0.0161381C5.24435 0.00531656 5.09608 -0.000363619 4.94776 1.80522e-05H4.94774ZM4.94916 0.419565C5.08663 0.41925 5.22391 0.424279 5.3617 0.434315C5.43386 0.439614 5.50579 0.446596 5.57779 0.454678C5.01292 0.90312 5.81043 1.8315 6.64142 1.67405C7.23784 1.56099 7.37948 1.22952 7.26583 0.914211C8.67166 1.54271 9.78958 2.74046 10.0126 4.33594L10.0161 4.35974C10.0585 4.67657 9.95262 4.92888 9.70671 5.1736C9.64744 5.23257 9.57935 5.28994 9.50391 5.34553C9.5934 5.01055 9.48348 4.6248 9.02401 4.3275C8.11748 3.7408 6.8594 5.16237 8.08459 5.95521C8.08804 5.95746 8.09161 5.95932 8.09514 5.9615C7.19507 6.20498 6.0937 6.32424 5.06137 6.32424C4.47501 6.32424 3.88149 6.29944 3.3242 6.24079C3.72262 6.03442 3.94011 5.45567 3.35788 5.07894C2.75226 4.68699 1.92268 5.57271 2.58753 6.13835C2.2526 6.07822 1.94179 6.00171 1.66703 5.90542C1.47332 5.83752 1.2986 5.7602 1.14571 5.67388C1.48585 5.51007 1.67945 5.01942 1.18927 4.70219C0.924185 4.53066 0.60724 4.65437 0.448375 4.87827C0.410612 4.72897 0.406324 4.56184 0.439238 4.36751C0.526573 3.85176 0.665681 3.39335 0.846863 2.98815C0.89895 3.41824 1.18457 3.76548 1.64523 3.68624C3.04159 3.44611 2.88544 1.4803 1.85223 1.65793C1.81137 1.66498 1.7719 1.67331 1.73369 1.68321C1.89987 1.51656 2.07688 1.36719 2.26338 1.23486C2.5495 1.0319 2.85807 0.868186 3.18177 0.742346C3.1608 0.901077 3.22876 1.07463 3.44063 1.21173C3.86406 1.48571 4.43534 0.910888 4.07068 0.496079C4.35896 0.445563 4.65314 0.420373 4.94909 0.41961L4.94916 0.419565ZM3.78519 1.64107C3.68214 1.64365 3.57723 1.67336 3.4786 1.73721C2.62536 2.28935 3.50114 3.27947 4.13249 2.87099C4.85241 2.40506 4.34176 1.6272 3.78519 1.64107ZM8.08955 2.3504C7.52907 2.35978 7.61776 3.21039 8.15264 3.37336C8.96434 3.62066 8.92658 2.57129 8.32596 2.38832C8.23719 2.36124 8.15834 2.34927 8.08955 2.3504ZM5.46623 2.97063C5.25377 2.97595 5.03809 3.03761 4.83477 3.16919C3.07621 4.30713 4.88203 6.34694 6.18323 5.5048C7.66704 4.54469 6.61331 2.94199 5.46621 2.97063H5.46623ZM7.01606 7.02726C5.76234 7.19194 4.4735 7.19131 3.25759 7.07567C2.7677 9.13314 2.38693 10.5135 5.11402 10.5135C8.02999 10.5135 7.58415 9.01968 7.01609 7.02728L7.01606 7.02726Z" fill="#F0FDFF"/>
</svg>
