<svg width="17" height="19" viewBox="0 0 17 19" fill="none" xmlns="http://www.w3.org/2000/svg">
<path d="M10.9901 1.59748C11.2488 1.86794 11.5633 2.01199 11.9337 2.02963C11.5633 2.04727 11.2488 2.19131 10.9901 2.46471C10.7314 2.73517 10.602 3.05854 10.602 3.43189C10.602 3.18495 10.5432 2.95859 10.4256 2.74693C10.3051 2.53527 10.1434 2.36476 9.94056 2.23835C9.73477 2.109 9.51135 2.04139 9.26735 2.02963C9.6407 2.00905 9.95526 1.86794 10.214 1.59748C10.4727 1.32702 10.602 1.00659 10.602 0.63324C10.602 1.00659 10.7314 1.32702 10.9901 1.59748Z" fill="white"/>
<path d="M4.16018 13.0406C4.29544 13.1753 4.4599 13.2471 4.65356 13.2558C4.4599 13.2646 4.29544 13.3364 4.16018 13.4726C4.02493 13.6073 3.9573 13.7684 3.9573 13.9543C3.9573 13.8313 3.92656 13.7186 3.86508 13.6131C3.80206 13.5077 3.71752 13.4228 3.61147 13.3598C3.50388 13.2954 3.38707 13.2617 3.2595 13.2558C3.4547 13.2456 3.61916 13.1753 3.75441 13.0406C3.88967 12.9059 3.9573 12.7462 3.9573 12.5603C3.9573 12.7462 4.02493 12.9059 4.16018 13.0406Z" fill="white"/>
<path d="M6.41918 15.8873C6.61455 16.0819 6.8521 16.1855 7.13184 16.1982C6.8521 16.2109 6.61455 16.3146 6.41918 16.5113C6.2238 16.7059 6.12612 16.9385 6.12612 17.2072C6.12612 17.0295 6.08172 16.8666 5.99291 16.7143C5.90189 16.562 5.77978 16.4394 5.62659 16.3484C5.47118 16.2553 5.30245 16.2067 5.11818 16.1982C5.40014 16.1834 5.63769 16.0819 5.83306 15.8873C6.02843 15.6927 6.12612 15.4621 6.12612 15.1935C6.12612 15.4621 6.2238 15.6927 6.41918 15.8873Z" fill="white"/>
<path d="M1.5817 17.789C1.70193 17.9088 1.84812 17.9726 2.02026 17.9804C1.84812 17.9882 1.70193 18.052 1.5817 18.173C1.46147 18.2928 1.40136 18.4359 1.40136 18.6012C1.40136 18.4919 1.37404 18.3917 1.31939 18.298C1.26337 18.2042 1.18823 18.1287 1.09396 18.0728C0.998322 18.0155 0.894488 17.9856 0.781091 17.9804C0.954603 17.9712 1.10079 17.9088 1.22102 17.789C1.34125 17.6693 1.40136 17.5274 1.40136 17.3621C1.40136 17.5274 1.46147 17.6693 1.5817 17.789Z" fill="white"/>
<path d="M7.83245 8.13206C7.93765 8.23684 8.06556 8.29265 8.21619 8.29948C8.06556 8.30632 7.93765 8.36212 7.83245 8.46805C7.72725 8.57283 7.67465 8.69811 7.67465 8.84276C7.67465 8.74709 7.65074 8.65939 7.60292 8.57739C7.55391 8.49538 7.48816 8.42932 7.40567 8.38035C7.32199 8.33023 7.23113 8.30404 7.13191 8.29948C7.28373 8.29151 7.41165 8.23684 7.51685 8.13206C7.62205 8.02727 7.67465 7.90313 7.67465 7.75848C7.67465 7.90313 7.72725 8.02727 7.83245 8.13206Z" fill="white"/>
<path d="M13.735 16.1541C14.0056 16.4236 14.3345 16.5671 14.7218 16.5847C14.3345 16.6022 14.0056 16.7457 13.735 17.0181C13.4645 17.2875 13.3293 17.6097 13.3293 17.9816C13.3293 17.7356 13.2678 17.5101 13.1448 17.2993C13.0188 17.0884 12.8497 16.9185 12.6376 16.7926C12.4224 16.6637 12.1888 16.5964 11.9337 16.5847C12.3241 16.5642 12.653 16.4236 12.9235 16.1541C13.194 15.8847 13.3293 15.5655 13.3293 15.1935C13.3293 15.5655 13.4645 15.8847 13.735 16.1541Z" fill="white"/>
<path d="M4.29599 1.89845C4.52141 2.12298 4.79551 2.24257 5.11829 2.25721C4.79551 2.27186 4.52141 2.39145 4.29599 2.61842C4.07056 2.84296 3.95784 3.11142 3.95784 3.42138C3.95784 3.21637 3.90661 3.02844 3.80414 2.85272C3.69911 2.677 3.55822 2.53544 3.38146 2.4305C3.20215 2.32311 3.00746 2.26698 2.79484 2.25721C3.12017 2.24013 3.39427 2.12298 3.6197 1.89845C3.84513 1.67391 3.95784 1.40789 3.95784 1.09793C3.95784 1.40789 4.07056 1.67391 4.29599 1.89845Z" fill="white"/>
<path d="M16.5615 3.74159C16.6516 3.83141 16.7613 3.87924 16.8904 3.8851C16.7613 3.89096 16.6516 3.93879 16.5615 4.02958C16.4713 4.1194 16.4262 4.22678 16.4262 4.35077C16.4262 4.26876 16.4057 4.19359 16.3647 4.1233C16.3227 4.05301 16.2664 3.99639 16.1957 3.95441C16.1239 3.91146 16.046 3.88901 15.961 3.8851C16.0911 3.87827 16.2008 3.83141 16.2909 3.74159C16.3811 3.65178 16.4262 3.54537 16.4262 3.42139C16.4262 3.54537 16.4713 3.65178 16.5615 3.74159Z" fill="white"/>
<path d="M12.9988 11.9511C13.089 12.0409 13.1986 12.0887 13.3278 12.0946C13.1986 12.1005 13.089 12.1483 12.9988 12.2391C12.9087 12.3289 12.8636 12.4363 12.8636 12.5603C12.8636 12.4783 12.8431 12.4031 12.8021 12.3328C12.7601 12.2625 12.7037 12.2059 12.633 12.1639C12.5613 12.121 12.4834 12.0985 12.3984 12.0946C12.5285 12.0878 12.6382 12.0409 12.7283 11.9511C12.8185 11.8613 12.8636 11.7549 12.8636 11.6309C12.8636 11.7549 12.9087 11.8613 12.9988 11.9511Z" fill="white"/>
<path d="M8.45208 13.2436C8.55727 13.3484 8.68519 13.4042 8.83582 13.4111C8.68519 13.4179 8.55727 13.4737 8.45208 13.5796C8.34688 13.6844 8.29428 13.8097 8.29428 13.9543C8.29428 13.8587 8.27037 13.771 8.22255 13.689C8.17353 13.607 8.10778 13.5409 8.0253 13.4919C7.94162 13.4418 7.85076 13.4156 7.75154 13.4111C7.90336 13.4031 8.03128 13.3484 8.13648 13.2436C8.24168 13.1389 8.29428 13.0147 8.29428 12.8701C8.29428 13.0147 8.34688 13.1389 8.45208 13.2436Z" fill="white"/>
<path d="M14.8933 8.65533C15.0586 8.81999 15.2596 8.90769 15.4963 8.91842C15.2596 8.92916 15.0586 9.01686 14.8933 9.18331C14.728 9.34797 14.6453 9.54484 14.6453 9.77215C14.6453 9.6218 14.6078 9.48399 14.5326 9.35513C14.4556 9.22627 14.3523 9.12246 14.2227 9.0455C14.0912 8.96675 13.9484 8.92558 13.7925 8.91842C14.0311 8.9059 14.2321 8.81999 14.3974 8.65533C14.5627 8.49067 14.6453 8.29558 14.6453 8.06828C14.6453 8.29558 14.728 8.49067 14.8933 8.65533Z" fill="white"/>
</svg>
